PathFileType	4	(X/Y/Z)	C:\Users\Basilio\Documents\Thesis Gigler\squatting_fais\c3dfiles\038\SLS_front_pre1\markers_experimental.trc
DataRate	CameraRate	NumFrames	NumMarkers	Units	OrigDataRate	OrigDataStartFrame	OrigNumFrames
200.000000	200.000000	4	61	mm	200.000000	1119	1279
Frame#	Time	FHD			LBHD			RBHD			C7			T10			CLAV			LSHO			LUUPA			LMUPA			LDUPA			LLEP			LMEP			LUL			LRFIN			RSHO			RUPA1			RMUPA			RDUPA			RLEP			RMEP			RRAD			RUL			RUFIN			LASI			RASI			USACR			LSACR			RSACR			LTHI1			LTHI2			LTHI3			LTHI4			LLFC			LMFC			LTIB1			LTIB2			LTIB3			LTIB4			LLMAL			LMMAL			LHEE			LMT1			LMT2			LMT5			RTHI			RTHI2			RTHI3			RTHI4			RLFC			RMFC			RTIB1			RTIB2			RTIB3			RTIB4			RLMAL			RMMAL			RHEE			RMT1			RMT2			RMT5			LRAD			
		X1	Y1	Z1	X2	Y2	Z2	X3	Y3	Z3	X4	Y4	Z4	X5	Y5	Z5	X6	Y6	Z6	X7	Y7	Z7	X8	Y8	Z8	X9	Y9	Z9	X10	Y10	Z10	X11	Y11	Z11	X12	Y12	Z12	X13	Y13	Z13	X14	Y14	Z14	X15	Y15	Z15	X16	Y16	Z16	X17	Y17	Z17	X18	Y18	Z18	X19	Y19	Z19	X20	Y20	Z20	X21	Y21	Z21	X22	Y22	Z22	X23	Y23	Z23	X24	Y24	Z24	X25	Y25	Z25	X26	Y26	Z26	X27	Y27	Z27	X28	Y28	Z28	X29	Y29	Z29	X30	Y30	Z30	X31	Y31	Z31	X32	Y32	Z32	X33	Y33	Z33	X34	Y34	Z34	X35	Y35	Z35	X36	Y36	Z36	X37	Y37	Z37	X38	Y38	Z38	X39	Y39	Z39	X40	Y40	Z40	X41	Y41	Z41	X42	Y42	Z42	X43	Y43	Z43	X44	Y44	Z44	X45	Y45	Z45	X46	Y46	Z46	X47	Y47	Z47	X48	Y48	Z48	X49	Y49	Z49	X50	Y50	Z50	X51	Y51	Z51	X52	Y52	Z52	X53	Y53	Z53	X54	Y54	Z54	X55	Y55	Z55	X56	Y56	Z56	X57	Y57	Z57	X58	Y58	Z58	X59	Y59	Z59	X60	Y60	Z60	X61	Y61	Z61	

1120	5.595	-198.8968200683594	1774.663208007813	-979.5930175781252	-353.8170776367188	1721.8291015625	-1041.886108398438	-345.3502502441407	1704.803833007813	-897.3533935546877	-391.3501281738282	1529.594482421875	-968.5662841796877	-344.1380920410157	1251.86572265625	-959.8039550781252	-247.1950378417969	1529.57763671875	-983.3421020507815	-324.1944885253907	1560.035766601563	-1121.705078125	-165.4545440673828	1488.155029296875	-1257.092041015625	-135.6612396240235	1519.8984375	-1231.431640625	-96.52789306640628	1491.2783203125	-1267.192504882813	-35.35900878906251	1489.193969726563	-1269.39794921875	-29.88423156738282	1414.889892578125	-1244.883056640625	260.2999267578126	1474.459838867188	-1256.437866210938	329.9962463378907	1488.677490234375	-1171.470336914063	-295.9738464355469	1550.223754882813	-835.197692871094	-134.3156127929688	1502.223876953125	-722.9877929687501	-98.66483306884768	1515.156372070313	-753.9185180664064	-66.23522186279298	1492.816040039063	-707.7561035156251	6.234886169433596	1485.644287109375	-699.2971801757814	7.224876880645754	1410.279052734375	-724.8486938476564	283.4268493652344	1467.310424804688	-769.543151855469	292.4505310058594	1476.55810546875	-700.3253784179689	365.6976013183594	1495.37890625	-769.8603515625002	-167.2984924316407	1074.1171875	-1079.989135742188	-168.7044525146485	1084.881591796875	-826.1729736328127	-337.6903686523438	1125.116943359375	-955.1978149414065	-350.7399291992188	1096.274536132813	-982.4436645507815	-349.1415100097657	1096.986083984375	-926.5965576171877	-232.6963043212891	753.1770019531251	-1129.022827148438	-211.9512329101563	670.9791259765626	-1121.435546875	-164.4687805175782	670.1051635742189	-1102.292724609375	-245.1049194335938	625.1122436523439	-1104.260864257813	-248.0302429199219	561.9642333984376	-1098.047607421875	-237.2921600341797	550.4979248046876	-978.5257568359377	-235.8860015869141	369.0619506835938	-1034.105346679688	-283.3837890625001	333.8384094238282	-1100.094360351563	-248.6628875732422	324.2319335937501	-1071.95947265625	-269.0969238281251	246.6062011718751	-1046.293701171875	-366.3720703125001	120.7700576782227	-1069.891357421875	-325.3663330078126	129.9810638427735	-1000.211364746094	-416.7845458984376	96.6790466308594	-1015.983154296875	-216.2744598388672	45.71331024169923	-1018.145446777344	-210.1421661376954	45.70081329345704	-1069.097778320313	-257.4281311035157	33.8421859741211	-1113.080810546875	-244.2407684326172	814.2544555664065	-769.6543579101565	-215.5190734863282	753.9675292968751	-762.4164428710939	-182.7337036132813	750.3852539062501	-767.0719604492189	-254.6038055419922	678.7590332031251	-780.158874511719	-259.3925170898438	541.5023193359376	-782.4353027343752	-264.3291015625001	538.1405029296876	-903.979919433594	-235.0575866699219	361.8731994628907	-806.3277587890627	-316.3331298828126	289.8834228515626	-764.0639648437501	-270.7517395019532	288.3533935546876	-776.2365722656252	-267.7207031250001	236.1321868896485	-805.3658447265627	-343.0614624023438	122.3141326904297	-771.142761230469	-315.5085449218751	125.2936706542969	-850.9163208007815	-406.2669067382814	86.9896697998047	-831.4741821289065	-192.9722900390626	48.48982620239259	-825.7398071289065	-195.0035400390626	47.72888946533204	-778.9747314453127	-239.3536834716797	34.17632675170899	-734.3834838867189	nan	nan	nan	
1121	5.600000000000001	-198.7260742187501	1774.532958984375	-979.0828247070315	-353.7233276367188	1721.799560546875	-1041.397583007813	-345.0659484863282	1704.835205078125	-896.8718872070315	-391.1242065429689	1529.573364257813	-968.092956542969	-343.8073120117188	1251.821044921875	-959.4334106445315	-247.0167846679688	1529.5791015625	-982.8880615234377	-324.0714111328126	1560.106323242188	-1121.287719726563	-165.1924591064453	1488.138793945313	-1256.531982421875	-135.3910675048828	1519.9873046875	-1230.856811523438	-96.41456604003909	1491.2802734375	-1266.56591796875	-35.09062194824219	1489.141479492188	-1268.75048828125	-29.71431732177735	1414.722290039063	-1244.325439453125	260.4172973632813	1474.363891601563	-1255.975341796875	330.4251708984376	1488.28564453125	-1170.880249023438	-295.8315124511719	1550.162353515625	-834.720886230469	-134.0104522705078	1502.15673828125	-722.5707397460939	-98.43157958984378	1515.058715820313	-753.4460449218751	-66.07908630371095	1492.762817382813	-707.3684692382814	6.549230575561525	1485.636474609375	-698.9421997070314	7.419992923736574	1410.191772460938	-724.4475097656251	283.6195678710938	1467.397827148438	-769.3552856445315	292.6871948242188	1476.635864257813	-700.1239624023439	365.9348144531251	1495.641967773438	-770.0774536132815	-166.9518127441407	1074.17919921875	-1079.727783203125	-168.1079864501953	1084.91015625	-826.0366821289065	-337.1743469238282	1125.04248046875	-954.9456787109377	-350.4491271972657	1096.409790039063	-982.1496582031252	-348.6944580078126	1096.989135742188	-926.2473144531252	-232.7432098388672	753.2648315429689	-1128.8232421875	-211.9476928710938	671.0834960937501	-1121.246948242188	-164.4696197509766	670.2927246093751	-1102.260498046875	-245.1317901611329	625.2396240234376	-1104.033081054688	-248.1544036865235	562.0635375976564	-1097.8349609375	-237.2347869873047	550.5679321289064	-978.3635864257815	-235.8545989990235	369.1209106445313	-1033.938598632813	-283.5285034179688	334.0098266601563	-1099.995849609375	-248.7548370361329	324.3709106445313	-1071.835815429688	-269.1025085449219	246.7398071289063	-1046.247924804688	-366.3797607421876	120.8610000610352	-1069.780395507813	-324.9655151367188	130.3471374511719	-999.9296875000002	-416.7838134765626	96.68607330322268	-1015.978942871094	-216.2086944580079	45.7092628479004	-1018.133972167969	-210.1443176269532	45.68830871582032	-1069.058959960938	-257.4306640625001	33.85775756835938	-1113.051025390625	-243.8589477539063	814.267272949219	-769.4498291015627	-215.2184295654297	754.0356445312501	-762.2504272460939	-182.3369293212891	750.3411254882814	-767.0567626953126	-254.3872833251954	678.7818603515626	-780.0611572265627	-259.2210693359376	541.4973754882814	-782.4009399414065	-264.1897888183594	538.2100219726564	-903.9527587890627	-234.9623718261719	361.8797607421876	-806.348327636719	-316.1772155761719	289.8742370605469	-764.0811157226564	-270.5752868652344	288.3754577636719	-776.245300292969	-267.6160278320313	236.159164428711	-805.394470214844	-342.9881896972657	122.2888412475586	-771.1525878906252	-315.5031738281251	125.2869262695313	-850.988952636719	-406.2735290527345	86.9888153076172	-831.5059814453127	-192.8694305419922	48.42301177978517	-825.6589965820315	-194.9776458740235	47.75212478637696	-778.9697875976565	-239.3606567382813	34.22204208374024	-734.3934326171876	nan	nan	nan	
1122	5.605	-198.4850463867188	1774.200561523438	-978.7050781250002	-353.6495056152344	1721.805297851563	-1040.890869140625	-344.8147888183594	1704.889038085938	-896.3250732421877	-390.9330444335939	1529.499267578125	-967.783386230469	-343.3965454101563	1251.801391601563	-959.041442871094	-246.9050445556641	1529.532348632813	-982.3770141601565	-323.9738769531251	1560.086547851563	-1120.863525390625	-165.0761871337891	1488.203125	-1256.024780273438	-135.2300415039063	1519.995361328125	-1230.218872070313	-96.2236022949219	1491.403564453125	-1266.062744140625	-34.91023254394532	1489.152587890625	-1268.161499023438	-29.56516456604005	1414.697998046875	-1243.772094726563	260.6158752441407	1474.400634765625	-1255.481567382813	330.6834106445313	1488.151733398438	-1170.385986328125	-295.7010803222657	1550.148071289063	-834.350769042969	-133.825668334961	1502	-722.1203613281251	-98.23670196533206	1515.09619140625	-753.2166748046876	-65.98297119140626	1492.686157226563	-706.9801025390626	6.784590721130373	1485.575317382813	-698.5141601562501	7.675426959991457	1410.108764648438	-724.0625610351564	283.8392944335938	1467.445190429688	-769.1892089843752	292.8923645019532	1476.7236328125	-699.9802856445314	366.0410461425782	1495.749755859375	-769.909606933594	-166.6148223876953	1074.202026367188	-1079.522705078125	-167.5599212646485	1084.856811523438	-825.7844848632815	-336.7852478027344	1125.039794921875	-954.6296386718752	-350.3480529785157	1095.927368164063	-982.061218261719	-348.2082519531251	1097.072021484375	-925.889099121094	-232.6752014160157	753.3991699218751	-1128.519897460938	-211.9408416748047	671.1747436523439	-1121.064575195313	-164.4463043212891	670.2891235351564	-1102.111938476563	-245.1139678955079	625.3763427734376	-1103.783081054688	-248.0404815673829	562.1373901367189	-1097.607299804688	-237.0763854980469	550.6417846679689	-978.2281494140627	-235.9204406738282	369.1739807128907	-1033.852783203125	-283.5845947265626	334.1152648925782	-1099.930908203125	-248.6564636230469	324.4564514160157	-1071.764770507813	-269.0606689453126	246.7712707519532	-1046.14013671875	-366.2299194335938	120.9141082763672	-1069.6328125	-325.3009643554688	130.1129150390625	-1000.124572753906	-416.7697753906251	96.70278930664065	-1015.933776855469	-216.2798461914063	45.68840789794923	-1018.090393066406	-210.119369506836	45.74116134643555	-1069.039794921875	-257.4453430175782	33.88514709472657	-1112.999877929688	-243.3753204345704	814.3244628906252	-769.2126464843752	-214.8067626953126	754.0021362304689	-762.2481079101564	-181.8975219726563	750.3709716796876	-766.9246215820314	-254.0498352050782	678.7938842773439	-779.9584960937502	-259.0447082519532	541.5524902343751	-782.3079833984377	-264.0440368652344	538.2373046875001	-903.9061279296877	-234.8756408691407	361.8827819824219	-806.3848266601565	-316.0753479003907	289.8772888183594	-764.0518188476564	-270.3830261230469	288.5066833496094	-776.2293090820315	-267.5653381347657	236.1949768066407	-805.4544067382815	-342.9656677246094	122.4421463012696	-771.1486816406252	-315.3938903808594	125.2801895141602	-851.0227661132815	-406.2219238281251	86.9832000732422	-831.523132324219	-192.874008178711	48.29673767089845	-825.8213500976565	-194.8622131347657	47.88589477539063	-778.852478027344	-239.3479766845704	34.25754928588868	-734.4421997070314	nan	nan	nan	
1123	5.61	-198.3769836425782	1774.450805664063	-978.3166503906252	-353.3368530273438	1722.150512695313	-1040.315673828125	-344.4654541015626	1704.994506835938	-895.8852539062502	-390.7726135253907	1529.513061523438	-967.4224853515627	-343.1062622070313	1251.73193359375	-958.6779785156252	-246.8657531738282	1529.608276367188	-981.900573730469	-323.7202148437501	1560.1171875	-1120.339965820313	-164.915267944336	1488.226928710938	-1255.582885742188	-135.1096496582032	1519.954956054688	-1229.672485351563	-96.02888488769534	1491.404418945313	-1265.5693359375	-34.75994873046876	1489.170532226563	-1267.600219726563	-29.4071216583252	1414.721923828125	-1243.32861328125	260.7437438964844	1474.349609375	-1254.93505859375	330.9368286132813	1487.999755859375	-1169.857788085938	-295.5722351074219	1550.061645507813	-833.9165649414065	-133.656982421875	1501.906982421875	-721.6908569335939	-98.0986251831055	1515.008056640625	-752.8425903320314	-65.83789062500001	1492.614624023438	-706.5958251953126	6.984011650085451	1485.52197265625	-698.2404785156251	7.888412952423097	1410.048583984375	-723.7176513671876	284.0889282226563	1467.622436523438	-769.1433105468752	293.0563049316407	1476.743896484375	-699.8231201171876	366.1621398925782	1495.800170898438	-769.8179931640627	-166.2895965576172	1074.229614257813	-1079.291259765625	-167.124755859375	1084.950317382813	-825.5297851562502	-336.3922119140626	1125.041259765625	-954.2429809570315	-350.0314941406251	1095.9638671875	-981.796081542969	-347.8144531250001	1097.044677734375	-925.5780029296877	-232.6118621826172	753.5283813476564	-1128.2529296875	-211.8335266113282	671.2561645507814	-1120.874389648438	-164.2693786621094	670.3952026367189	-1101.994506835938	-245.0782165527344	625.5031738281251	-1103.69384765625	-248.0381317138672	562.1999511718751	-1097.465942382813	-236.9337768554688	550.6884765625001	-977.991638183594	-235.868148803711	369.2782287597657	-1033.756225585938	-283.5942382812501	334.2030334472657	-1099.772827148438	-248.5995330810547	324.6251831054688	-1071.658203125	-268.9672851562501	246.8963470458985	-1046.072143554688	-366.1519470214844	121.0279922485352	-1069.605712890625	-325.2828063964844	130.1595001220703	-1000.038391113281	-416.7572021484376	96.77326965332034	-1015.9033203125	-216.2239227294922	45.59747695922852	-1018.107421875	-210.1119537353516	45.76611328125001	-1069.00244140625	-257.4031982421876	33.89876556396485	-1112.979736328125	-242.9456176757813	814.2751464843752	-769.039245605469	-214.8378295898438	753.6337890625001	-762.6380004882814	-181.5171966552735	750.2896118164064	-766.9285888671876	-253.768295288086	678.7807006835939	-779.8413085937502	-259.1065673828126	541.3248901367189	-782.4018554687502	-264.0044860839844	538.2365722656251	-903.8699951171877	-234.7472686767579	361.9427795410157	-806.3904418945315	-315.9200134277344	289.8656005859376	-764.0964355468751	-270.2698059082032	288.4472961425782	-776.3161621093752	-267.5199279785157	236.1688690185547	-805.495544433594	-342.7994384765626	122.4268112182617	-771.2151489257815	-315.4517822265626	125.37744140625	-851.0421142578127	-406.2213134765626	87.09836578369142	-831.5183105468752	-192.8789520263672	48.41198730468751	-825.8057861328127	-194.9577026367188	47.70866775512696	-778.9958496093752	-239.3665618896485	34.24128723144532	-734.4648437500001	nan	nan	nan	
